<?xml version="1.0" encoding="UTF-8" standalone="no"?><!-- Generator: Gravit.io --><svg xmlns="http://www.w3.org/2000/svg" xmlns:xlink="http://www.w3.org/1999/xlink" style="isolation:isolate" viewBox="0 0 120 22.2" width="120pt" height="22.2pt"><defs><clipPath id="_clipPath_peGO5Ps1dPyRgl2qwxVbTsIaqIB5Eu1O"><rect width="120" height="22.2"/></clipPath></defs><g clip-path="url(#_clipPath_peGO5Ps1dPyRgl2qwxVbTsIaqIB5Eu1O)"><path d="M 1.769 19.19 L 118.421 19.19 C 118.845 19.19 119.19 19.534 119.19 19.958 L 119.19 20.242 C 119.19 20.666 118.845 21.01 118.421 21.01 L 1.769 21.01 C 1.345 21.01 1 20.666 1 20.242 L 1 19.958 C 1 19.534 1.345 19.19 1.769 19.19 Z" style="stroke:none;fill:#CD0006;stroke-miterlimit:10;"/><linearGradient id="_lgradient_8" x1="0.20374890056323725" y1="1.0937178368652511" x2="0.44409277306473244" y2="0.66061881712724" gradientTransform="matrix(39.557,0,0,17.781,1,0.731)" gradientUnits="userSpaceOnUse"><stop offset="0%" stop-opacity="1" style="stop-color:rgb(251,0,17)"/><stop offset="33.33333333333333%" stop-opacity="1" style="stop-color:rgb(226,0,11)"/><stop offset="68.33333333333333%" stop-opacity="1" style="stop-color:rgb(199,0,5)"/><stop offset="100%" stop-opacity="1" style="stop-color:rgb(176,0,0)"/></linearGradient><path d=" M 2.878 9.488 C 2.719 9.768 2.539 10.308 2.478 10.707 C 2.359 11.408 1.499 12.488 1.258 12.248 C 1.198 12.168 1.098 11.748 1.038 11.308 C 0.938 10.628 1.018 10.328 1.478 9.628 C 2.458 8.127 3.618 6.867 3.899 6.968 C 4.016 6.85 3.104 9.127 2.878 9.488 Z  M 25.418 13.352 L 25.418 13.352 L 25.878 13.133 C 26.178 13.013 26.537 12.992 26.818 13.093 C 27.977 13.532 28.698 13.693 29.057 13.593 C 29.298 13.532 30.318 13.893 31.618 14.493 C 33.958 15.593 34.298 15.653 36.898 15.313 C 37.978 15.153 38.558 14.973 38.778 14.712 C 39.058 14.393 40.557 9.552 40.557 8.952 C 40.557 8.512 40.118 8.713 38.658 9.812 C 37.838 10.412 37.098 10.912 36.978 10.912 C 36.858 10.912 36.758 10.513 36.758 10.013 L 36.758 9.113 L 35.958 9.232 C 35.238 9.352 35.058 9.273 33.758 8.313 C 32.198 7.152 32.058 6.993 31.858 5.752 C 31.718 4.833 31.338 4.512 30.858 4.912 C 30.518 5.192 30.337 5.112 27.337 3.252 C 24.937 1.772 22.897 0.712 22.518 0.732 C 22.377 0.732 21.937 0.852 21.557 1.013 C 21.177 1.152 19.737 1.812 18.377 2.492 C 17.017 3.152 15.677 3.712 15.377 3.712 C 15.097 3.712 14.098 3.532 13.157 3.312 C 10.957 2.812 9.557 2.812 8.597 3.292 C 7.637 3.792 4.617 6.232 4.356 6.713 Q 3.701 8.304 3.048 10.743 C 3.076 11.091 3.229 11.47 3.537 12.073 C 4.237 13.433 4.297 13.953 3.856 14.313 C 3.416 14.693 3.497 15.713 4.057 16.613 C 4.316 17.053 4.557 17.653 4.557 17.953 L 4.557 18.513 L 7.157 18.513 C 8.756 18.513 9.757 18.433 9.757 18.313 C 9.757 18.213 9.457 17.693 9.077 17.173 Q 8.177 15.893 8.557 14.762 L 10.498 11.921 Q 10.647 11.674 11.011 11.621 C 11.145 11.701 11.134 11.967 10.985 12.214 L 10.743 12.569 C 10.579 12.808 10.654 13.113 10.91 13.249 Q 13.14 14.436 13.457 14.532 L 13.457 14.532 C 14.557 14.853 15.157 14.913 16.237 14.813 C 16.977 14.733 17.697 14.652 17.837 14.593 C 18.592 14.63 20.007 17.364 19.597 18.012 C 19.657 18.393 19.837 18.412 22.018 18.473 C 24.317 18.533 24.377 18.513 24.257 18.113 C 24.246 18.078 23.85 17.59 23.393 16.613 L 23.393 16.613 Q 22.986 15.741 22.766 15.435 C 22.597 15.199 22.239 15.09 21.967 15.191 L 21.96 15.193 C 21.688 15.294 21.427 15.265 21.377 15.129 L 21.377 15.129 C 21.326 14.994 21.506 14.802 21.778 14.701 L 25.418 13.352 Z  M 26.1 14.308 C 26.118 14.345 27.278 15.769 27.278 15.769 C 27.562 16.024 27.921 16.426 28.079 16.666 C 28.079 16.666 28.332 17.049 28.497 17.304 C 28.62 17.496 28.557 17.664 28.326 17.677 C 27.962 17.698 26.823 17.713 26.138 17.713 C 25.425 17.713 24.733 17.716 24.733 17.716 C 24.573 17.728 24.444 17.503 24.444 17.214 L 24.444 16.756 L 23.25 15.248 C 23.07 15.021 23.146 14.761 23.421 14.667 L 25.38 14.002 C 25.655 13.908 25.977 14.046 26.1 14.308 Z  M 12.557 14.707 C 12.686 14.871 12.802 15.064 12.877 15.253 C 13.057 15.673 13.457 16.292 13.797 16.652 C 14.137 16.993 14.337 17.373 14.277 17.493 C 14.177 17.633 13.297 17.713 11.937 17.713 C 9.797 17.713 9.757 17.713 9.757 17.253 C 9.757 17.013 9.977 16.651 9.757 16.231 Q 9.573 15.896 9.324 15.5 C 9.169 15.254 9.177 14.861 9.34 14.622 L 9.928 13.762 C 10.091 13.523 10.427 13.448 10.676 13.595 L 12.557 14.707 L 12.557 14.707 L 12.557 14.707 Z " fill-rule="evenodd" fill="url(#_lgradient_8)"/><linearGradient id="_lgradient_9" x1="0" y1="0.5" x2="1" y2="0.5" gradientTransform="matrix(74,0,0,11.403,43,6.845)" gradientUnits="userSpaceOnUse"><stop offset="0%" stop-opacity="1" style="stop-color:rgb(75,79,82)"/><stop offset="50%" stop-opacity="1" style="stop-color:rgb(133,141,144)"/><stop offset="100%" stop-opacity="1" style="stop-color:rgb(125,130,134)"/></linearGradient><path d=" M 51.182 14.447 L 51.182 14.447 L 53.212 18.248 L 49.09 18.248 L 47.56 14.857 L 46.748 14.857 L 46.748 18.248 L 43 18.248 L 43 6.845 L 48.903 6.845 L 48.903 6.845 Q 52.931 6.845 52.931 10.843 L 52.931 10.843 L 52.931 10.843 Q 52.931 13.58 51.182 14.447 Z  M 47.606 9.764 L 47.606 9.764 L 46.748 9.764 L 46.748 12.044 L 47.606 12.044 L 47.606 12.044 Q 48.294 12.044 48.598 11.908 L 48.598 11.908 L 48.598 11.908 Q 48.903 11.771 48.903 11.284 L 48.903 11.284 L 48.903 10.524 L 48.903 10.524 Q 48.903 10.038 48.598 9.901 L 48.598 9.901 L 48.598 9.901 Q 48.294 9.764 47.606 9.764 Z  M 61.082 18.248 L 64.83 18.248 L 64.83 6.845 L 61.082 6.845 L 61.082 10.874 L 58.272 10.874 L 58.272 6.845 L 54.524 6.845 L 54.524 18.248 L 58.272 18.248 L 58.272 14.219 L 61.082 14.219 L 61.082 18.248 Z  M 66.704 18.248 L 70.451 18.248 L 70.451 6.845 L 66.704 6.845 L 66.704 18.248 Z  M 82.725 6.845 L 82.725 18.248 L 79.196 18.248 L 76.338 14.203 L 76.338 14.203 Q 76.26 14.097 76.213 13.884 L 76.213 13.884 L 76.213 13.884 Q 76.166 13.671 76.151 13.322 L 76.151 13.322 L 76.073 13.322 L 76.073 18.248 L 72.325 18.248 L 72.325 6.845 L 75.854 6.845 L 78.712 10.889 L 78.712 10.889 Q 78.79 10.995 78.837 11.208 L 78.837 11.208 L 78.837 11.208 Q 78.884 11.421 78.899 11.771 L 78.899 11.771 L 78.977 11.771 L 78.977 6.845 L 82.725 6.845 Z  M 87.394 18.248 L 87.815 16.438 L 90.907 16.438 L 91.344 18.248 L 95.295 18.248 L 92.266 6.845 L 86.472 6.845 L 83.443 18.248 L 87.394 18.248 Z  M 89.268 10.342 L 89.471 10.342 L 90.22 13.534 L 88.502 13.534 L 89.268 10.342 Z  M 102.197 15.496 L 102.197 15.496 L 99.761 15.496 L 99.761 18.248 L 96.013 18.248 L 96.013 6.845 L 101.916 6.845 L 101.916 6.845 Q 105.944 6.845 105.944 11.056 L 105.944 11.056 L 105.944 11.056 Q 105.944 11.984 105.757 12.789 L 105.757 12.789 L 105.757 12.789 Q 105.57 13.595 105.125 14.196 L 105.125 14.196 L 105.125 14.196 Q 104.68 14.796 103.969 15.146 L 103.969 15.146 L 103.969 15.146 Q 103.259 15.496 102.197 15.496 Z  M 100.62 9.764 L 100.62 9.764 L 99.761 9.764 L 99.761 12.577 L 100.62 12.577 L 100.62 12.577 Q 101.307 12.577 101.611 12.44 L 101.611 12.44 L 101.611 12.44 Q 101.916 12.303 101.916 11.801 L 101.916 11.801 L 101.916 10.524 L 101.916 10.524 Q 101.916 10.038 101.611 9.901 L 101.611 9.901 L 101.611 9.901 Q 101.307 9.764 100.62 9.764 Z  M 113.252 15.496 L 113.252 15.496 L 110.816 15.496 L 110.816 18.248 L 107.069 18.248 L 107.069 6.845 L 112.971 6.845 L 112.971 6.845 Q 117 6.845 117 11.056 L 117 11.056 L 117 11.056 Q 117 11.984 116.813 12.789 L 116.813 12.789 L 116.813 12.789 Q 116.625 13.595 116.18 14.196 L 116.18 14.196 L 116.18 14.196 Q 115.735 14.796 115.025 15.146 L 115.025 15.146 L 115.025 15.146 Q 114.314 15.496 113.252 15.496 Z  M 111.675 9.764 L 111.675 9.764 L 110.816 9.764 L 110.816 12.577 L 111.675 12.577 L 111.675 12.577 Q 112.362 12.577 112.667 12.44 L 112.667 12.44 L 112.667 12.44 Q 112.971 12.303 112.971 11.801 L 112.971 11.801 L 112.971 10.524 L 112.971 10.524 Q 112.971 10.038 112.667 9.901 L 112.667 9.901 L 112.667 9.901 Q 112.362 9.764 111.675 9.764 Z " fill="url(#_lgradient_9)"/></g></svg>